<svg width="860" height="540" viewBox="0 0 860 540" fill="none" xmlns="http://www.w3.org/2000/svg">
<g clip-path="url(#clip0_572_63)">
<rect width="860" height="537.5" fill="black"/>
<g filter="url(#filter0_f_572_63)">
<ellipse cx="876.722" cy="479.569" rx="741.153" ry="479.569" fill="#32006C"/>
</g>
<g filter="url(#filter1_f_572_63)">
<ellipse cx="764.146" cy="640.819" rx="401.632" ry="318.319" fill="#6C00D7"/>
</g>
</g>
<path d="M102.688 411.9L102.664 400.764L97.144 409.98H95.752L90.232 400.908V411.9H87.256V395.1H89.824L96.496 406.236L103.048 395.1H105.616L105.64 411.9H102.688ZM109.89 399.084H112.89V411.9H109.89V399.084ZM111.402 396.972C110.858 396.972 110.402 396.804 110.034 396.468C109.666 396.116 109.482 395.684 109.482 395.172C109.482 394.66 109.666 394.236 110.034 393.9C110.402 393.548 110.858 393.372 111.402 393.372C111.946 393.372 112.402 393.54 112.77 393.876C113.138 394.196 113.322 394.604 113.322 395.1C113.322 395.628 113.138 396.076 112.77 396.444C112.418 396.796 111.962 396.972 111.402 396.972ZM122.707 412.068C121.379 412.068 120.187 411.788 119.131 411.228C118.075 410.668 117.251 409.892 116.659 408.9C116.067 407.892 115.771 406.756 115.771 405.492C115.771 404.228 116.067 403.1 116.659 402.108C117.251 401.116 118.067 400.34 119.107 399.78C120.163 399.22 121.363 398.94 122.707 398.94C123.971 398.94 125.075 399.196 126.019 399.708C126.979 400.22 127.699 400.956 128.179 401.916L125.875 403.26C125.507 402.668 125.043 402.228 124.483 401.94C123.939 401.636 123.339 401.484 122.683 401.484C121.563 401.484 120.635 401.852 119.899 402.588C119.163 403.308 118.795 404.276 118.795 405.492C118.795 406.708 119.155 407.684 119.875 408.42C120.611 409.14 121.547 409.5 122.683 409.5C123.339 409.5 123.939 409.356 124.483 409.068C125.043 408.764 125.507 408.316 125.875 407.724L128.179 409.068C127.683 410.028 126.955 410.772 125.995 411.3C125.051 411.812 123.955 412.068 122.707 412.068ZM135.888 406.404L133.656 408.516V411.9H130.656V394.092H133.656V404.844L139.872 399.084H143.472L138.12 404.46L143.976 411.9H140.328L135.888 406.404ZM164.306 403.308H167.258V410.004C166.394 410.692 165.386 411.22 164.234 411.588C163.082 411.956 161.898 412.14 160.682 412.14C158.97 412.14 157.426 411.772 156.05 411.036C154.674 410.284 153.594 409.252 152.81 407.94C152.026 406.628 151.634 405.148 151.634 403.5C151.634 401.852 152.026 400.372 152.81 399.06C153.594 397.748 154.674 396.724 156.05 395.988C157.442 395.236 159.002 394.86 160.73 394.86C162.138 394.86 163.418 395.092 164.57 395.556C165.722 396.02 166.69 396.7 167.474 397.596L165.506 399.516C164.226 398.236 162.682 397.596 160.874 397.596C159.69 397.596 158.634 397.844 157.706 398.34C156.794 398.836 156.074 399.532 155.546 400.428C155.034 401.324 154.778 402.348 154.778 403.5C154.778 404.62 155.034 405.628 155.546 406.524C156.074 407.42 156.794 408.124 157.706 408.636C158.634 409.148 159.682 409.404 160.85 409.404C162.162 409.404 163.314 409.116 164.306 408.54V403.308ZM175.981 398.94C177.869 398.94 179.309 399.396 180.301 400.308C181.309 401.204 181.813 402.564 181.813 404.388V411.9H178.981V410.34C178.613 410.9 178.085 411.332 177.397 411.636C176.725 411.924 175.909 412.068 174.949 412.068C173.989 412.068 173.149 411.908 172.429 411.588C171.709 411.252 171.149 410.796 170.749 410.22C170.365 409.628 170.173 408.964 170.173 408.228C170.173 407.076 170.597 406.156 171.445 405.468C172.309 404.764 173.661 404.412 175.501 404.412H178.813V404.22C178.813 403.324 178.541 402.636 177.997 402.156C177.469 401.676 176.677 401.436 175.621 401.436C174.901 401.436 174.189 401.548 173.485 401.772C172.797 401.996 172.213 402.308 171.733 402.708L170.557 400.524C171.229 400.012 172.037 399.62 172.981 399.348C173.925 399.076 174.925 398.94 175.981 398.94ZM175.573 409.884C176.325 409.884 176.989 409.716 177.565 409.38C178.157 409.028 178.573 408.532 178.813 407.892V406.404H175.717C173.989 406.404 173.125 406.972 173.125 408.108C173.125 408.652 173.341 409.084 173.773 409.404C174.205 409.724 174.805 409.884 175.573 409.884ZM188.519 400.956C189.383 399.612 190.903 398.94 193.079 398.94V401.796C192.823 401.748 192.591 401.724 192.383 401.724C191.215 401.724 190.303 402.068 189.647 402.756C188.991 403.428 188.663 404.404 188.663 405.684V411.9H185.663V399.084H188.519V400.956ZM208.059 394.092V411.9H205.179V410.244C204.683 410.852 204.067 411.308 203.331 411.612C202.611 411.916 201.811 412.068 200.931 412.068C199.699 412.068 198.587 411.796 197.595 411.252C196.619 410.708 195.851 409.94 195.291 408.948C194.731 407.94 194.451 406.788 194.451 405.492C194.451 404.196 194.731 403.052 195.291 402.06C195.851 401.068 196.619 400.3 197.595 399.756C198.587 399.212 199.699 398.94 200.931 398.94C201.779 398.94 202.555 399.084 203.259 399.372C203.963 399.66 204.563 400.092 205.059 400.668V394.092H208.059ZM201.291 409.5C202.011 409.5 202.659 409.34 203.235 409.02C203.811 408.684 204.267 408.212 204.603 407.604C204.939 406.996 205.107 406.292 205.107 405.492C205.107 404.692 204.939 403.988 204.603 403.38C204.267 402.772 203.811 402.308 203.235 401.988C202.659 401.652 202.011 401.484 201.291 401.484C200.571 401.484 199.923 401.652 199.347 401.988C198.771 402.308 198.315 402.772 197.979 403.38C197.643 403.988 197.475 404.692 197.475 405.492C197.475 406.292 197.643 406.996 197.979 407.604C198.315 408.212 198.771 408.684 199.347 409.02C199.923 409.34 200.571 409.5 201.291 409.5ZM223.984 399.084L217.984 412.932C217.424 414.324 216.744 415.3 215.944 415.86C215.144 416.436 214.176 416.724 213.04 416.724C212.4 416.724 211.768 416.62 211.144 416.412C210.52 416.204 210.008 415.916 209.608 415.548L210.808 413.34C211.096 413.612 211.432 413.828 211.816 413.988C212.216 414.148 212.616 414.228 213.016 414.228C213.544 414.228 213.976 414.092 214.312 413.82C214.664 413.548 214.984 413.092 215.272 412.452L215.488 411.948L209.896 399.084H213.016L217.048 408.564L221.104 399.084H223.984Z" fill="white"/>
<path d="M270.864 395.1V411.9H267.744V397.716H264.192V395.1H270.864ZM286.365 409.26V411.9H273.981V409.812L280.653 403.476C281.405 402.756 281.909 402.132 282.165 401.604C282.437 401.06 282.573 400.524 282.573 399.996C282.573 399.212 282.309 398.612 281.781 398.196C281.253 397.78 280.477 397.572 279.453 397.572C277.741 397.572 276.429 398.156 275.517 399.324L273.333 397.644C273.989 396.764 274.869 396.084 275.973 395.604C277.093 395.108 278.341 394.86 279.717 394.86C281.541 394.86 282.997 395.292 284.085 396.156C285.173 397.02 285.717 398.196 285.717 399.684C285.717 400.596 285.525 401.452 285.141 402.252C284.757 403.052 284.021 403.964 282.933 404.988L278.445 409.26H286.365ZM294.544 391.692H297.232L289.312 414.3H286.624L294.544 391.692ZM309.474 409.26V411.9H297.09V409.812L303.762 403.476C304.514 402.756 305.018 402.132 305.274 401.604C305.546 401.06 305.682 400.524 305.682 399.996C305.682 399.212 305.418 398.612 304.89 398.196C304.362 397.78 303.586 397.572 302.562 397.572C300.85 397.572 299.538 398.156 298.626 399.324L296.442 397.644C297.098 396.764 297.978 396.084 299.082 395.604C300.202 395.108 301.45 394.86 302.826 394.86C304.65 394.86 306.106 395.292 307.194 396.156C308.282 397.02 308.826 398.196 308.826 399.684C308.826 400.596 308.634 401.452 308.25 402.252C307.866 403.052 307.13 403.964 306.042 404.988L301.554 409.26H309.474ZM325.899 408.084H322.923V411.9H319.899V408.084H310.683V405.924L318.963 395.1H322.299L314.499 405.444H319.995V402.06H322.923V405.444H325.899V408.084Z" fill="white"/>
<g filter="url(#filter2_b_572_63)">
<path d="M100 201C100 192.163 107.163 185 116 185H196C204.837 185 212 192.163 212 201V249C212 257.837 204.837 265 196 265H116C107.163 265 100 257.837 100 249V201Z" fill="white" fill-opacity="0.3"/>
<path d="M101 201C101 192.716 107.716 186 116 186H196C204.284 186 211 192.716 211 201V249C211 257.284 204.284 264 196 264H116C107.716 264 101 257.284 101 249V201Z" stroke="white" stroke-opacity="0.3" stroke-width="2"/>
</g>
<path d="M127 187H129V263H127V239H102V237H127V213H102V211H127V187Z" fill="white" fill-opacity="0.3"/>
<path d="M184 237H210V239H184V263H182V223C182 216.373 187.373 211 194 211H210V213H194C188.477 213 184 217.477 184 223V237Z" fill="white" fill-opacity="0.3"/>
<path d="M184 187H182V203H184V187Z" fill="white" fill-opacity="0.3"/>
<path fill-rule="evenodd" clip-rule="evenodd" d="M170 225C170 232.732 163.732 239 156 239C148.268 239 142 232.732 142 225C142 217.268 148.268 211 156 211C163.732 211 170 217.268 170 225ZM168 225C168 231.627 162.627 237 156 237C149.373 237 144 231.627 144 225C144 218.373 149.373 213 156 213C162.627 213 168 218.373 168 225Z" fill="white" fill-opacity="0.3"/>
<path d="M724.6 104.6C725.4 105.6 726 106.8 726.4 108C726.8 109.2 727 110.6 727 112C727 113.4 726.8 114.8 726.4 116C726 117.2 725.4 118.4 724.6 119.4C723.6 120.8 723.8 122.8 725.2 123.8C726.6 124.8 728.6 124.6 729.6 123.2C730.8 121.6 731.6 120 732.4 118C733.2 116 733.4 114 733.4 112C733.4 110 733 108 732.4 106C731.8 104.2 730.8 102.4 729.6 100.8C728.6 99.4 726.6 99.2 725.2 100.2C723.8 101.2 723.6 103.2 724.6 104.6Z" fill="white"/>
<path d="M735.6 98.8C738 102.6 739.4 107.2 739.4 112C739.4 116.8 738 121.4 735.6 125.2C734.6 126.6 735.2 128.6 736.6 129.6C738.2 130.6 740 130 741 128.6C744 123.8 745.8 118.2 745.8 112C745.8 106 744 100.2 741 95.4C740 94 738 93.4 736.6 94.4C735.2 95.4 734.6 97.2 735.6 98.8Z" fill="white"/>
<path d="M747.2 92.8C750.6 98.4 752.4 105 752.4 112C752.4 119 750.4 125.6 747.2 131.2C746.4 132.8 746.8 134.6 748.4 135.6C750 136.4 751.8 136 752.8 134.4C756.8 127.8 759 120.2 759 112C759 103.8 756.8 96.2 752.8 89.6C752 88 750 87.6 748.4 88.4C746.8 89.4 746.4 91.2 747.2 92.8Z" fill="white"/>
<path d="M758.8 86.8C763 94.2 765.6 102.8 765.6 112C765.6 121.2 763.2 129.8 758.8 137.2C758 138.8 758.4 140.6 760 141.6C761.6 142.4 763.4 142 764.4 140.4C769.2 132 772 122.4 772 112C772 101.6 769.2 92 764.4 83.6C763.6 82 761.6 81.6 760 82.4C758.4 83.2 758 85.2 758.8 86.8Z" fill="white"/>
<g filter="url(#filter3_b_572_63)">
<ellipse cx="713.239" cy="439.254" rx="37.3134" ry="37.3134" fill="white" fill-opacity="0.3"/>
</g>
<g filter="url(#filter4_b_572_63)">
<path d="M796.821 439.254C796.821 459.861 780.115 476.567 759.508 476.567C738.9 476.567 722.194 459.861 722.194 439.254C722.194 418.646 738.9 401.94 759.508 401.94C780.115 401.94 796.821 418.646 796.821 439.254Z" fill="white" fill-opacity="0.7"/>
</g>
<g filter="url(#filter5_b_572_63)">
<path d="M736.373 409.976C727.736 416.81 722.194 427.385 722.194 439.254C722.194 451.123 727.736 461.698 736.373 468.532C745.011 461.698 750.553 451.123 750.553 439.254C750.553 427.385 745.011 416.81 736.373 409.976Z" fill="white" fill-opacity="0.6"/>
</g>
<path d="M87.82 320H97C99.24 320 101.23 320.44 102.97 321.32C104.71 322.18 106.06 323.41 107.02 325.01C107.98 326.59 108.46 328.42 108.46 330.5C108.46 332.58 107.98 334.42 107.02 336.02C106.06 337.6 104.71 338.83 102.97 339.71C101.23 340.57 99.24 341 97 341H87.82V320ZM96.82 337.7C98.36 337.7 99.71 337.41 100.87 336.83C102.05 336.23 102.95 335.39 103.57 334.31C104.21 333.21 104.53 331.94 104.53 330.5C104.53 329.06 104.21 327.8 103.57 326.72C102.95 325.62 102.05 324.78 100.87 324.2C99.71 323.6 98.36 323.3 96.82 323.3H91.72V337.7H96.82ZM128.355 337.73V341H112.605V320H127.935V323.27H116.505V328.73H126.645V331.94H116.505V337.73H128.355ZM147.583 330.08C148.743 330.46 149.663 331.1 150.343 332C151.023 332.88 151.363 333.98 151.363 335.3C151.363 337.12 150.663 338.53 149.263 339.53C147.863 340.51 145.823 341 143.143 341H132.703V320H142.543C145.023 320 146.933 320.49 148.273 321.47C149.613 322.43 150.283 323.76 150.283 325.46C150.283 326.5 150.043 327.42 149.563 328.22C149.083 329.02 148.423 329.64 147.583 330.08ZM136.603 323.06V328.85H142.123C143.483 328.85 144.523 328.61 145.243 328.13C145.983 327.63 146.353 326.91 146.353 325.97C146.353 325.01 145.983 324.29 145.243 323.81C144.523 323.31 143.483 323.06 142.123 323.06H136.603ZM142.903 337.94C145.923 337.94 147.433 336.93 147.433 334.91C147.433 332.89 145.923 331.88 142.903 331.88H136.603V337.94H142.903ZM155.525 320H159.425V341H155.525V320ZM169.365 323.3H162.405V320H180.225V323.3H173.265V341H169.365V323.3ZM201.163 341.3C199.043 341.3 197.123 340.84 195.403 339.92C193.703 338.98 192.363 337.69 191.383 336.05C190.423 334.41 189.943 332.56 189.943 330.5C189.943 328.44 190.433 326.59 191.413 324.95C192.393 323.31 193.733 322.03 195.433 321.11C197.153 320.17 199.073 319.7 201.193 319.7C202.913 319.7 204.483 320 205.903 320.6C207.323 321.2 208.523 322.07 209.503 323.21L206.983 325.58C205.463 323.94 203.593 323.12 201.373 323.12C199.933 323.12 198.643 323.44 197.503 324.08C196.363 324.7 195.473 325.57 194.833 326.69C194.193 327.81 193.873 329.08 193.873 330.5C193.873 331.92 194.193 333.19 194.833 334.31C195.473 335.43 196.363 336.31 197.503 336.95C198.643 337.57 199.933 337.88 201.373 337.88C203.593 337.88 205.463 337.05 206.983 335.39L209.503 337.79C208.523 338.93 207.313 339.8 205.873 340.4C204.453 341 202.883 341.3 201.163 341.3ZM226.42 336.14H215.92L213.85 341H209.83L219.28 320H223.12L232.6 341H228.52L226.42 336.14ZM225.13 333.08L221.17 323.9L217.24 333.08H225.13ZM249.011 341L244.721 334.85C244.541 334.87 244.271 334.88 243.911 334.88H239.171V341H235.271V320H243.911C245.731 320 247.311 320.3 248.651 320.9C250.011 321.5 251.051 322.36 251.771 323.48C252.491 324.6 252.851 325.93 252.851 327.47C252.851 329.05 252.461 330.41 251.681 331.55C250.921 332.69 249.821 333.54 248.381 334.1L253.211 341H249.011ZM248.921 327.47C248.921 326.13 248.481 325.1 247.601 324.38C246.721 323.66 245.431 323.3 243.731 323.3H239.171V331.67H243.731C245.431 331.67 246.721 331.31 247.601 330.59C248.481 329.85 248.921 328.81 248.921 327.47ZM257.215 320H266.395C268.635 320 270.625 320.44 272.365 321.32C274.105 322.18 275.455 323.41 276.415 325.01C277.375 326.59 277.855 328.42 277.855 330.5C277.855 332.58 277.375 334.42 276.415 336.02C275.455 337.6 274.105 338.83 272.365 339.71C270.625 340.57 268.635 341 266.395 341H257.215V320ZM266.215 337.7C267.755 337.7 269.105 337.41 270.265 336.83C271.445 336.23 272.345 335.39 272.965 334.31C273.605 333.21 273.925 331.94 273.925 330.5C273.925 329.06 273.605 327.8 272.965 326.72C272.345 325.62 271.445 324.78 270.265 324.2C269.105 323.6 267.755 323.3 266.215 323.3H261.115V337.7H266.215Z" fill="white"/>
<rect x="2.5" y="2.5" width="855" height="535" rx="37.5" stroke="url(#paint0_linear_572_63)" stroke-width="5"/>
<defs>
<filter id="filter0_f_572_63" x="-163.042" y="-298.611" width="2079.53" height="1556.36" filterUnits="userSpaceOnUse" color-interpolation-filters="sRGB">
<feFlood flood-opacity="0" result="BackgroundImageFix"/>
<feBlend mode="normal" in="SourceGraphic" in2="BackgroundImageFix" result="shape"/>
<feGaussianBlur stdDeviation="149.306" result="effect1_foregroundBlur_572_63"/>
</filter>
<filter id="filter1_f_572_63" x="183.347" y="143.333" width="1161.6" height="994.972" filterUnits="userSpaceOnUse" color-interpolation-filters="sRGB">
<feFlood flood-opacity="0" result="BackgroundImageFix"/>
<feBlend mode="normal" in="SourceGraphic" in2="BackgroundImageFix" result="shape"/>
<feGaussianBlur stdDeviation="89.5833" result="effect1_foregroundBlur_572_63"/>
</filter>
<filter id="filter2_b_572_63" x="75" y="160" width="162" height="130" filterUnits="userSpaceOnUse" color-interpolation-filters="sRGB">
<feFlood flood-opacity="0" result="BackgroundImageFix"/>
<feGaussianBlur in="BackgroundImageFix" stdDeviation="12.5"/>
<feComposite in2="SourceAlpha" operator="in" result="effect1_backgroundBlur_572_63"/>
<feBlend mode="normal" in="SourceGraphic" in2="effect1_backgroundBlur_572_63" result="shape"/>
</filter>
<filter id="filter3_b_572_63" x="625.925" y="351.94" width="174.627" height="174.627" filterUnits="userSpaceOnUse" color-interpolation-filters="sRGB">
<feFlood flood-opacity="0" result="BackgroundImageFix"/>
<feGaussianBlur in="BackgroundImageFix" stdDeviation="25"/>
<feComposite in2="SourceAlpha" operator="in" result="effect1_backgroundBlur_572_63"/>
<feBlend mode="normal" in="SourceGraphic" in2="effect1_backgroundBlur_572_63" result="shape"/>
</filter>
<filter id="filter4_b_572_63" x="672.194" y="351.94" width="174.627" height="174.627" filterUnits="userSpaceOnUse" color-interpolation-filters="sRGB">
<feFlood flood-opacity="0" result="BackgroundImageFix"/>
<feGaussianBlur in="BackgroundImageFix" stdDeviation="25"/>
<feComposite in2="SourceAlpha" operator="in" result="effect1_backgroundBlur_572_63"/>
<feBlend mode="normal" in="SourceGraphic" in2="effect1_backgroundBlur_572_63" result="shape"/>
</filter>
<filter id="filter5_b_572_63" x="672.194" y="359.976" width="128.358" height="158.556" filterUnits="userSpaceOnUse" color-interpolation-filters="sRGB">
<feFlood flood-opacity="0" result="BackgroundImageFix"/>
<feGaussianBlur in="BackgroundImageFix" stdDeviation="25"/>
<feComposite in2="SourceAlpha" operator="in" result="effect1_backgroundBlur_572_63"/>
<feBlend mode="normal" in="SourceGraphic" in2="effect1_backgroundBlur_572_63" result="shape"/>
</filter>
<linearGradient id="paint0_linear_572_63" x1="-6.4075e-06" y1="270" x2="860" y2="270" gradientUnits="userSpaceOnUse">
<stop stop-color="white" stop-opacity="0.8"/>
<stop offset="1" stop-color="white" stop-opacity="0.1"/>
</linearGradient>
<clipPath id="clip0_572_63">
<rect width="860" height="537.5" fill="white"/>
</clipPath>
</defs>
</svg>
